<svg width="64" height="64" viewBox="0 0 64 64" fill="none" xmlns="http://www.w3.org/2000/svg">
  <!-- Background with gradient -->
  <defs>
    <linearGradient id="bgGradient" x1="0%" y1="0%" x2="100%" y2="100%">
      <stop offset="0%" style="stop-color:#1a1a2e;stop-opacity:1" />
      <stop offset="50%" style="stop-color:#16213e;stop-opacity:1" />
      <stop offset="100%" style="stop-color:#0f3460;stop-opacity:1" />
    </linearGradient>
    <linearGradient id="questGradient" x1="0%" y1="0%" x2="100%" y2="100%">
      <stop offset="0%" style="stop-color:#ffd700;stop-opacity:1" />
      <stop offset="100%" style="stop-color:#ff8c00;stop-opacity:1" />
    </linearGradient>
    <linearGradient id="crystalGradient" x1="0%" y1="0%" x2="100%" y2="100%">
      <stop offset="0%" style="stop-color:#00d4ff;stop-opacity:1" />
      <stop offset="100%" style="stop-color:#0099cc;stop-opacity:1" />
    </linearGradient>
  </defs>
  
  <!-- Main background circle -->
  <circle cx="32" cy="32" r="30" fill="url(#bgGradient)" stroke="#ffd700" stroke-width="2"/>
  
  <!-- Quest crystal in center -->
  <g transform="translate(32, 32)">
    <!-- Main crystal body -->
    <path d="M-8,-12 L0,-20 L8,-12 L12,0 L8,12 L0,20 L-8,12 L-12,0 Z" fill="url(#crystalGradient)" stroke="#ffd700" stroke-width="1.5"/>
    
    <!-- Crystal facets for depth -->
    <path d="M-6,-10 L0,-16 L6,-10 L8,0 L6,10 L0,16 L-6,10 L-8,0 Z" fill="url(#crystalGradient)" opacity="0.7"/>
    
    <!-- Inner glow -->
    <circle cx="0" cy="0" r="4" fill="#ffffff" opacity="0.3"/>
  </g>
  
  <!-- Quest symbols around the crystal -->
  <g transform="translate(32, 32)">
    <!-- Top - Quest scroll -->
    <rect x="-3" y="-22" width="6" height="8" rx="1" fill="url(#questGradient)" stroke="#8B4513" stroke-width="0.5"/>
    <line x1="-2" y1="-20" x2="2" y2="-20" stroke="#8B4513" stroke-width="0.5"/>
    <line x1="-2" y1="-18" x2="2" y2="-18" stroke="#8B4513" stroke-width="0.5"/>
    
    <!-- Bottom - Treasure chest -->
    <rect x="-4" y="18" width="8" height="6" rx="1" fill="#8B4513" stroke="#ffd700" stroke-width="0.5"/>
    <rect x="-3" y="16" width="6" height="2" rx="1" fill="#ffd700" stroke="#8B4513" stroke-width="0.5"/>
    <circle cx="0" cy="17" r="0.5" fill="#8B4513"/>
    
    <!-- Left - Magic wand -->
    <line x1="-20" y1="-2" x2="-16" y2="2" stroke="#ffd700" stroke-width="2"/>
    <circle cx="-20" cy="-2" r="1.5" fill="#ffd700"/>
    <circle cx="-16" cy="2" r="1" fill="#00d4ff"/>
    
    <!-- Right - Ancient key -->
    <circle cx="18" cy="0" r="2" fill="#ffd700" stroke="#8B4513" stroke-width="0.5"/>
    <rect x="20" y="-1" width="3" height="2" fill="#8B4513"/>
    <rect x="22" y="-0.5" width="1" height="1" fill="#ffd700"/>
  </g>
  
  <!-- Encryption aura around the crystal -->
  <g transform="translate(32, 32)">
    <circle cx="0" cy="0" r="16" fill="none" stroke="#00d4ff" stroke-width="1" opacity="0.3" stroke-dasharray="2,2">
      <animateTransform attributeName="transform" type="rotate" values="0 0 0;360 0 0" dur="10s" repeatCount="indefinite"/>
    </circle>
    <circle cx="0" cy="0" r="20" fill="none" stroke="#ffd700" stroke-width="0.5" opacity="0.2" stroke-dasharray="1,3">
      <animateTransform attributeName="transform" type="rotate" values="360 0 0;0 0 0" dur="15s" repeatCount="indefinite"/>
    </circle>
  </g>
</svg>
